<?xml version="1.0" standalone="no"?>
<!DOCTYPE svg PUBLIC "-//W3C//DTD SVG 20010904//EN"
 "http://www.w3.org/TR/2001/REC-SVG-20010904/DTD/svg10.dtd">
<svg version="1.0" xmlns="http://www.w3.org/2000/svg"
 width="70.000000pt" height="70.000000pt" viewBox="0 0 70.000000 70.000000"
 preserveAspectRatio="xMidYMid meet">
<metadata>
Created by potrace 1.14, written by Peter Selinger 2001-2017
</metadata>
<g transform="translate(0.000000,70.000000) scale(0.100000,-0.100000)"
fill="#000000" stroke="none">
<path d="M152 463 c-19 -9 -41 -32 -53 -54 -52 -102 14 -209 129 -209 43 0
102 23 102 40 0 14 -18 22 -25 11 -11 -18 -73 -30 -108 -20 -48 13 -78 50 -84
101 -4 37 -1 49 22 76 35 42 85 55 139 37 50 -18 71 -3 28 19 -40 20 -108 20
-150 -1z"/>
<path d="M430 458 c-91 -61 -89 -181 3 -239 25 -16 45 -19 89 -16 75 4 88 17
88 83 0 41 -4 54 -15 54 -11 0 -15 -12 -15 -49 0 -47 -2 -50 -33 -60 -70 -23
-157 37 -157 109 0 41 40 93 83 107 31 11 45 10 83 -3 51 -17 66 -12 41 13
-10 10 -38 18 -74 21 -48 3 -64 0 -93 -20z"/>
</g>
</svg>
