<?xml version="1.0" standalone="no"?>
<!DOCTYPE svg PUBLIC "-//W3C//DTD SVG 20010904//EN"
 "http://www.w3.org/TR/2001/REC-SVG-20010904/DTD/svg10.dtd">
<svg version="1.0" xmlns="http://www.w3.org/2000/svg"
 width="736.000000pt" height="736.000000pt" viewBox="0 0 736.000000 736.000000"
 preserveAspectRatio="xMidYMid meet">
<metadata>
Created by potrace 1.14, written by Peter Selinger 2001-2017
</metadata>
<g transform="translate(0.000000,736.000000) scale(0.100000,-0.100000)"
fill="#000000" stroke="none">
<path d="M0 3680 l0 -3680 3680 0 3680 0 0 3680 0 3680 -3680 0 -3680 0 0
-3680z m2289 1224 c165 -25 298 -72 321 -113 16 -30 13 -52 -26 -184 -51 -175
-72 -190 -199 -142 -117 44 -199 58 -345 57 -233 -1 -388 -58 -521 -191 -137
-138 -205 -309 -213 -541 -11 -268 57 -474 204 -620 114 -114 241 -172 420
-191 151 -16 364 11 476 61 110 48 138 23 183 -156 37 -151 35 -172 -28 -203
-120 -62 -346 -102 -571 -102 -176 -1 -256 9 -384 46 -178 52 -301 122 -433
248 -162 155 -266 360 -307 606 -21 122 -21 369 -1 485 53 301 201 556 421
721 271 204 606 277 1003 219z m1804 -5 c157 -31 271 -82 295 -131 11 -24 8
-40 -24 -140 -47 -146 -60 -173 -90 -187 -37 -17 -51 -14 -141 25 -202 86
-435 83 -536 -9 -80 -72 -99 -170 -51 -265 40 -80 122 -135 324 -217 309 -125
471 -248 550 -420 43 -93 55 -158 55 -290 -1 -135 -21 -221 -78 -330 -39 -73
-161 -198 -239 -243 -257 -151 -711 -154 -1014 -7 -132 64 -132 64 -68 272 36
115 62 153 106 153 10 0 58 -20 107 -44 130 -66 230 -89 376 -90 134 -1 194
13 264 64 122 89 135 286 27 394 -53 53 -141 102 -291 161 -66 26 -147 61
-180 77 -207 105 -346 257 -391 428 -22 87 -22 245 0 330 100 374 508 566 999
469z m1867 6 c103 -17 167 -37 251 -79 92 -45 94 -54 39 -222 -61 -186 -80
-200 -201 -145 -105 47 -192 66 -309 66 -210 0 -320 -80 -320 -235 0 -138 71
-200 376 -328 381 -159 545 -335 573 -612 16 -154 -18 -316 -91 -436 -68 -112
-207 -225 -337 -275 -156 -59 -426 -79 -614 -45 -196 36 -369 111 -393 171
-10 26 -7 46 26 157 21 71 45 139 53 152 29 43 68 43 156 -3 207 -106 465
-130 610 -57 100 52 143 120 143 230 1 165 -77 238 -387 361 -198 79 -313 151
-412 260 -131 142 -181 337 -138 540 37 178 167 341 342 428 177 88 392 113
633 72z"/>
</g>
</svg>
